<svg xmlns="http://www.w3.org/2000/svg" width="840" height="460" viewBox="0 0 840 460" role="img" aria-label="Efficient frontier">
  <rect width="840" height="460" rx="14" fill="#0b1220"/>
  <text x="72" y="28" fill="#e8eef7" font-family="Inter, Helvetica, Arial, sans-serif" font-size="18" font-weight="700">Efficient frontier</text>
  <text x="72" y="46" fill="#8fa0b8" font-family="Inter, Helvetica, Arial, sans-serif" font-size="12">2 parcels selected · mode=expected · budget $2,000,000</text>
  
  <g><line x1="72.0" y1="56" x2="72.0" y2="404" stroke="rgba(143,160,184,0.18)"/><line x1="72" y1="404.0" x2="812" y2="404.0" stroke="rgba(143,160,184,0.18)"/><text x="72.0" y="426" text-anchor="middle" fill="#8fa0b8" font-family="Inter, Helvetica, Arial, sans-serif" font-size="11">$0.00M</text><text x="62" y="408.0" text-anchor="end" fill="#8fa0b8" font-family="Inter, Helvetica, Arial, sans-serif" font-size="11">0.0</text><line x1="257.0" y1="56" x2="257.0" y2="404" stroke="rgba(143,160,184,0.18)"/><line x1="72" y1="317.0" x2="812" y2="317.0" stroke="rgba(143,160,184,0.18)"/><text x="257.0" y="426" text-anchor="middle" fill="#8fa0b8" font-family="Inter, Helvetica, Arial, sans-serif" font-size="11">$0.50M</text><text x="62" y="321.0" text-anchor="end" fill="#8fa0b8" font-family="Inter, Helvetica, Arial, sans-serif" font-size="11">1.7</text><line x1="442.0" y1="56" x2="442.0" y2="404" stroke="rgba(143,160,184,0.18)"/><line x1="72" y1="230.0" x2="812" y2="230.0" stroke="rgba(143,160,184,0.18)"/><text x="442.0" y="426" text-anchor="middle" fill="#8fa0b8" font-family="Inter, Helvetica, Arial, sans-serif" font-size="11">$1.00M</text><text x="62" y="234.0" text-anchor="end" fill="#8fa0b8" font-family="Inter, Helvetica, Arial, sans-serif" font-size="11">3.5</text><line x1="627.0" y1="56" x2="627.0" y2="404" stroke="rgba(143,160,184,0.18)"/><line x1="72" y1="143.0" x2="812" y2="143.0" stroke="rgba(143,160,184,0.18)"/><text x="627.0" y="426" text-anchor="middle" fill="#8fa0b8" font-family="Inter, Helvetica, Arial, sans-serif" font-size="11">$1.50M</text><text x="62" y="147.0" text-anchor="end" fill="#8fa0b8" font-family="Inter, Helvetica, Arial, sans-serif" font-size="11">5.2</text><line x1="812.0" y1="56" x2="812.0" y2="404" stroke="rgba(143,160,184,0.18)"/><line x1="72" y1="56.0" x2="812" y2="56.0" stroke="rgba(143,160,184,0.18)"/><text x="812.0" y="426" text-anchor="middle" fill="#8fa0b8" font-family="Inter, Helvetica, Arial, sans-serif" font-size="11">$2.00M</text><text x="62" y="60.0" text-anchor="end" fill="#8fa0b8" font-family="Inter, Helvetica, Arial, sans-serif" font-size="11">7.0</text></g>
  <polyline points="195.3,109.1 318.7,109.1 442.0,109.1 565.3,109.1 688.7,109.1 812.0,109.1" fill="none" stroke="#3ee0c0" stroke-width="2.6"/>
  <circle cx="195.3" cy="109.1" r="4.2" fill="#3ee0c0"/><circle cx="318.7" cy="109.1" r="4.2" fill="#3ee0c0"/><circle cx="442.0" cy="109.1" r="4.2" fill="#3ee0c0"/><circle cx="565.3" cy="109.1" r="4.2" fill="#3ee0c0"/><circle cx="688.7" cy="109.1" r="4.2" fill="#3ee0c0"/><circle cx="812.0" cy="109.1" r="4.2" fill="#3ee0c0"/>
  <line x1="81.5" y1="56" x2="81.5" y2="404" stroke="#f0c14b" stroke-dasharray="5 4" stroke-width="1.4"/><text x="89.5" y="72" fill="#f0c14b" font-family="Inter, Helvetica, Arial, sans-serif" font-size="12" font-weight="600">saturates at $25,600</text>
  <text x="442.0" y="432" text-anchor="middle" fill="#8fa0b8"
        font-family="Inter, Helvetica, Arial, sans-serif" font-size="12">budget (USD)</text>
  <text x="18" y="230.0" fill="#8fa0b8" font-family="Inter, Helvetica, Arial, sans-serif"
        font-size="12" transform="rotate(-90 18 230.0)">annual expected people-risk avoided</text>

  <text x="72" y="448" fill="#f0c14b" font-family="Inter, Helvetica, Arial, sans-serif" font-size="10">Universe is 2 parcel(s) from contracts/fixtures/candidates.json. Spend $25,600 of $2,000,000 is the solver exhausting that universe, not a $</text>
</svg>
